<svg xmlns="http://www.w3.org/2000/svg" viewBox="0 0 500 142.8" style="enable-background:new 0 0 500 142.8" xml:space="preserve"><path d="M56.6 4.5c1 0 1.5.5 2.5 1-6 2.5-12 9-15 23l-11 3c3.5-9.9 10.5-27 23.5-27zm5.5 5c1 3 2 6.5 2 12v1l-14.5 4c3-10.5 8-15 12.5-17zm13.1 9-6.5 2V19c0-4.5-.5-8-1.5-11 3.4 1 6.4 5.5 8 10.5zm32.5 8.1c0-.5-.5-1-1-1-1 0-11.5-1-11.5-1s-7.5-7.5-8.5-8c-1-1-2.5-.5-3-.5 0 0-1.5.5-4 1.5-2.5-7-7-13.5-14.5-13.5h-.5c-2-3-5-4-7.5-4-18-.5-26.6 22-29.6 33.6-4 1-8 2.5-12.5 4-4 1-4 1.5-4.5 5C10 45.1 0 124.3 0 124.3l79.7 15 43.1-9.5c-.1 0-15.1-102.2-15.1-103.2z" style="fill:#8db849"/><path d="M106.2 25.6c-.5 0-11-1-11-1s-7.5-7.5-8.5-8c-.5-.5-.5-.5-1-.5l-6 123.2 43.1-9.5s-15-102.2-15-103.2c-.1-.5-1.1-1-1.6-1" style="fill:#5a863e"/><path d="m65.1 49.6-5.5 16s-4.5-2.5-10.5-2.5c-8.5 0-9 5-9 6.5 0 7 19 10 19 27.1 0 13.5-8.5 22-20 22-13.5 0-20.5-8.5-20.5-8.5l3.5-12s7 6 13 6c4 0 5.5-3 5.5-5.5 0-9.5-15.5-10-15.5-25.6 0-13 9.5-25.6 28.1-25.6 8.4-.4 11.9 2.1 11.9 2.1" style="fill:#fffffe"/><path d="M173.3 79.2c-4.5-2.5-6.5-4.5-6.5-7 0-3.5 3-5.5 8-5.5 5.5 0 10.5 2.5 10.5 2.5l4-12s-3.5-3-14-3c-15 0-25.1 8.5-25.1 20.5 0 7 5 12 11 15.5 5 3 7 5 7 8s-2.5 6-7.5 6c-7 0-14-3.5-14-3.5l-4 12s6 4 16.5 4c15 0 26.1-7.5 26.1-21 .1-7.5-5.4-13-12-16.5M234 53.6c-7.5 0-13.5 3.5-18 9l6.5-34.1h-17L189 115.2h17l5.5-29.6c2-11 8-18 13.5-18 4 0 5.5 2.5 5.5 6.5 0 2.5 0 5-.5 7.5l-6.5 34.1h17l6.5-35.1c.5-3.5 1-8 1-11 0-10-5-16-14-16m43.6 49.6c-6 0-8-5-8-11 0-9.5 5-25.6 14-25.6 6 0 8 5 8 10 0 11.1-5 26.6-14 26.6zm8.5-49.6c-20.5 0-34.1 18.5-34.1 39.1 0 13 8 23.5 23.5 23.5 20 0 33.6-18 33.6-39.1 0-12-7-23.5-23-23.5zm50.1 50.1c-4.5 0-7-2.5-7-2.5l3-16c2-10.5 7.5-17.5 13.5-17.5 5 0 7 5 7 9.5-.5 11-7 26.5-16.5 26.5zm16.5-50.1c-11.5 0-18 10-18 10l1-9h-15c-.5 6-2 15.5-3.5 22.5l-12 62.1h17l4.5-25.1h.5s3.5 2 10 2c20 0 33.1-20.5 33.1-41.1-.1-10.9-5.1-21.4-17.6-21.4zm41.6-24c-5.5 0-9.5 4.5-9.5 10 0 5 3 8.5 8 8.5 5.5 0 10-3.5 10-10 0-5-3.5-8.5-8.5-8.5m-23.6 85.6h17l11.5-60.1h-17l-11.5 60.1zm71.7-60.1h-12l.5-3c1-6 4.5-11 10-11 3 0 5.5 1 5.5 1l3.5-13.5s-3-1.5-9-1.5-12 1.5-16.5 5.5c-6 5-8.5 12-10 19l-.5 3h-8l-2.5 13h8l-9 47.6h17l9-47.6h11.5l2.5-12.5zm40.6 0s-10.5 26.6-15.5 41.1c-.5-4.5-4-41.1-4-41.1h-18l10 55.1c0 1 0 2-.5 3-2 4-5.5 7.5-9 10-3 2.5-7 4-9.5 5l4.5 14.5c3.5-.5 10.5-3.5 16.5-9 7.5-7 15-18.5 22-33.6L500 55.6l-17-.5z" style="fill:#1a1919"/></svg>