<svg version="1.1" id="Camada_1" xmlns="http://www.w3.org/2000/svg" x="0" y="0" viewBox="0 0 3000 680.7" style="enable-background:new 0 0 3000 680.7" xml:space="preserve"><style>.st0{fill:#00749a}.st1{fill:#464342}</style><g id="Layer_2"><path class="st0" d="M1739.9 267.9h-118.1v12.5c36.9 0 42.9 7.9 42.9 54.8v84.4c0 46.8-5.9 55.4-42.9 55.4-28.4-4-47.5-19.1-73.9-48.2l-30.3-33c40.9-7.3 62.7-33 62.7-62 0-36.3-31-64-89.1-64h-116.1v12.5c36.9 0 42.9 7.9 42.9 54.8v84.4c0 46.8-5.9 55.4-42.9 55.4v12.5h131.3v-12.5c-36.9 0-42.9-8.6-42.9-55.4v-23.7h11.2l73.2 91.7h192c94.3 0 135.2-50.1 135.2-110.2.1-59.9-40.8-109.4-135.2-109.4zm-276.4 107.6v-87.7h27c29.7 0 42.9 20.4 42.9 44.2 0 23.1-13.2 43.5-42.9 43.5h-27zm278.4 91.7h-4.6c-23.7 0-27-5.9-27-36.3V287.7h31.7c68.6 0 81.1 50.1 81.1 89.1 0 40.2-12.6 90.4-81.2 90.4zM1007.7 399.9l45.5-134.6c13.2-38.9 7.3-50.1-35-50.1V202h124v13.2c-41.6 0-51.5 9.9-68 58.1L999 498.9h-8.6l-67.3-206.5-68.6 206.5H846l-73.2-225.6c-15.8-48.2-26.4-58.1-64.7-58.1V202h146.5v13.2c-38.9 0-49.5 9.2-35.6 50.1l44.2 134.6L929.8 202h12.5l65.4 197.9zM1232 496.2c-72.6 0-131.9-53.4-131.9-118.8 0-64.6 59.4-118.1 131.9-118.1 72.6 0 131.9 53.4 131.9 118.1 0 65.4-59.4 118.8-131.9 118.8zm0-216.4c-60.7 0-81.8 54.7-81.8 97.6 0 43.5 21.1 97.6 81.8 97.6 61.4 0 82.5-54.1 82.5-97.6-.1-42.8-21.2-97.6-82.5-97.6z"/><path class="st1" d="M2038.1 474.4v13.2H1887v-13.2c44.2 0 52.1-11.2 52.1-77.2V291.7c0-66-7.9-76.5-52.1-76.5V202h136.6c67.9 0 105.6 35 105.6 81.8 0 45.5-37.6 81.1-105.6 81.1H1986v32.3c0 66 7.9 77.2 52.1 77.2zm-14.5-248.7H1986v114.8h37.6c36.9 0 54.1-25.7 54.1-56.7 0-31.7-17.1-58.1-54.1-58.1zM2582.4 425.6l-3.3 11.9c-5.9 21.8-13.2 29.7-60 29.7h-9.2c-34.3 0-40.2-7.9-40.2-54.8v-30.3c51.5 0 55.4 4.6 55.4 38.9h12.5v-98.3H2525c0 34.3-4 38.9-55.4 38.9v-73.9h36.3c46.8 0 54.1 7.9 60 29.7l3.3 12.5h10.5l-4.6-62h-194v12.5c36.9 0 42.9 7.9 42.9 54.8v84.4c0 42.8-5 53.6-34.2 55.2-27.7-4.2-46.7-19.3-72.7-47.9l-30.4-33c40.9-7.3 62.7-33 62.7-62 0-36.3-31-64-89.1-64h-116.1v12.5c36.9 0 42.9 7.9 42.9 54.8v84.4c0 46.8-5.9 55.4-42.9 55.4v12.5h131.3V475c-36.9 0-42.9-8.6-42.9-55.4v-23.7h11.2l73.2 91.7h271.1l4-62h-9.7zm-349.6-50.1v-87.7h27c29.7 0 42.9 20.4 42.9 44.2 0 23.1-13.2 43.5-42.9 43.5h-27zM2716.3 496.2c-26.4 0-49.5-13.9-59.4-22.4-3.3 3.3-9.2 13.2-10.6 22.4h-12.5v-91h13.2c5.3 43.5 35.6 69.3 74.6 69.3 21.1 0 38.3-11.9 38.3-31.7 0-17.1-15.2-30.3-42.2-42.9l-37.6-17.8c-26.4-12.5-46.2-34.3-46.2-63.3 0-31.7 29.7-58.7 70.6-58.7 21.8 0 40.2 7.9 51.5 17.1 3.3-2.6 6.6-9.9 8.6-17.8h12.5v77.9h-13.9c-4.6-31-21.8-56.7-56.7-56.7-18.5 0-35.6 10.6-35.6 27.1 0 17.1 13.9 26.4 45.5 40.9l36.3 17.8c31.7 15.2 44.2 39.6 44.2 59.4-.1 41.4-36.4 70.4-80.6 70.4zM2919.5 496.2c-26.4 0-49.5-13.9-59.4-22.4-3.3 3.3-9.2 13.2-10.6 22.4H2837v-91h13.2c5.3 43.5 35.6 69.3 74.6 69.3 21.1 0 38.3-11.9 38.3-31.7 0-17.1-15.2-30.3-42.2-42.9l-37.6-17.8c-26.4-12.5-46.2-34.3-46.2-63.3 0-31.7 29.7-58.7 70.6-58.7 21.8 0 40.2 7.9 51.5 17.1 3.3-2.6 6.6-9.9 8.6-17.8h12.5v77.9h-13.8c-4.6-31-21.8-56.7-56.7-56.7-18.5 0-35.6 10.6-35.6 27.1 0 17.1 13.9 26.4 45.5 40.9l36.3 17.8c31.7 15.2 44.2 39.6 44.2 59.4-.2 41.4-36.5 70.4-80.7 70.4zM48.4 340.3c0 115.6 67.2 215.4 164.5 262.8L73.7 221.5C57.5 257.8 48.4 298 48.4 340.3zM537.4 325.6c0-36.1-13-61.1-24.1-80.5-14.8-24-28.7-44.4-28.7-68.5 0-26.8 20.4-51.8 49-51.8 1.3 0 2.5.2 3.8.2-51.9-47.6-121.1-76.6-197.2-76.6-102 0-191.7 52.3-243.9 131.6 6.8.2 13.3.4 18.8.4 30.5 0 77.8-3.7 77.8-3.7 15.7-.9 17.6 22.2 1.9 24 0 0-15.8 1.9-33.4 2.8l106.3 316.2 63.9-191.6-45.5-124.6c-15.7-.9-30.6-2.8-30.6-2.8-15.7-.9-13.9-25 1.8-24.1 0 0 48.2 3.7 76.9 3.7 30.5 0 77.8-3.7 77.8-3.7 15.7-.9 17.6 22.2 1.9 24 0 0-15.8 1.9-33.4 2.8L486 517.3l29.1-97.3c12.7-40.4 22.3-69.4 22.3-94.4z"/><path class="st1" d="m345.5 365.9-87.6 254.5c26.2 7.7 53.8 11.9 82.5 11.9 34 0 66.6-5.9 97-16.5-.8-1.3-1.5-2.6-2.1-4l-89.8-245.9zM596.5 200.3c1.3 9.3 2 19.3 2 30 0 29.6-5.5 62.9-22.2 104.6l-89.2 257.8c86.8-50.6 145.2-144.7 145.2-252.4 0-50.7-13-98.5-35.8-140z"/><path class="st1" d="M340.3 0C152.7 0 0 152.7 0 340.3 0 528 152.7 680.7 340.3 680.7c187.7 0 340.4-152.7 340.4-340.3C680.7 152.7 528 0 340.3 0zm0 665.1c-179.1 0-324.7-145.7-324.7-324.7 0-179.1 145.7-324.7 324.7-324.7S665 161.4 665 340.4c.1 179-145.6 324.7-324.7 324.7z"/></g></svg>